<svg xmlns="http://www.w3.org/2000/svg" width="600" height="600" viewBox="0 0 600 600">
  <defs>
    <style>
      .cls-1 {
        fill-rule: evenodd;
      }
    </style>
  </defs>
  <path class="cls-1" d="M32,359l16-47,18,3,12-26,16-17,9-28,7-45,10,27,7,27,11,20,13,21,14-12,10-18,8-12,8-34,16-24,8-1,10-24,3-32,9,13,3,16,5,26,5,18,8,16,7-17,10-3,12,28,7,24,9,12,5.209,9.117L311,284l7-5,16,17,15,13,13-3,10-4,14,12,14-14,5-24,15-6,9,43,6,36,14-10,14,1,19,23,7,21,10,20,6-19,3-39,17-25,14-17,6,33,5,42-5,48-17,19-11,24-18,44-8,10-7-28-1-28-5-34-11,6-5,24-18-14-9-21-2-11-11-24-7,4-9,34-12-1-16-37-14-10-6-24-8,3-13-10-15-9-14-1-4-15-16,14-18,2-5-20-15,16-22,42-29,36-22,12-14-15,25-32-19-3-17,30-22,9-22-18L90,372l-7-15-11,9L58,343,43,361Z"/>
</svg>
