<svg xmlns="http://www.w3.org/2000/svg" width="600" height="600" viewBox="0 0 600 600">
  <defs>
    <style>
      .cls-1 {
        fill-rule: evenodd;
      }
    </style>
  </defs>
  <path class="cls-1" d="M303,293l4,8,11,11,7,13h5l6,11,10,22,8,24,8,10,3,10v10l4,28s2.434,12.77,17,17,17,12,17,12l22-5,17-8,11-2,9,6,11,14,7,14,29,8,15-17,8-14,5-12,8-8,12-14,12-22,1-26-5-22-1-24-8-28-4,6-6-15-10-4-6,7-10,14-23,6-8,13-5,10-8-3-11-13-9,5h-9l-5,13-7,5-14-6-4-12H407l-4,13-9,21-6,21-9-16-1-6-2-14-14-13,8-16-2-14h-8l-11-10-8-11-8-7-8-20-13-24-11,5-5,6-4-23-7-20-6-14-5-12-10-29-5,1-4,8-11,11-5,19v5l11,2,6,23,4,23-8,27,10,13,24,11Z"/>
</svg>
