<svg xmlns="http://www.w3.org/2000/svg" width="600" height="600" viewBox="0 0 600 600">
  <defs>
    <style>
      .cls-1 {
        fill-rule: evenodd;
      }
    </style>
  </defs>
  <path class="cls-1" d="M38,305l6-30,5-25,7-22,10-2,1,9,8,14,8,4,9-6,6-9,4-14,11-2,6,4,11,14,10,4,7,10,5-19,6-21,6-20,8,6,4-5,5-14,5-19,8-14,11-12,7-16,7-26,7,7,2,5,14,30,3,20,4,14,13,12,12,14,12,16,6,21,5,12,12,16,24,26,8,8,10,15,15,23,3,2h13l9-13,6,6,7,6h9l4,8,7,22,18,14,20,4,10,34,9,19,23,26,19-9,12-2,5,6-16,39-7,10-12,5-6,8v10l-5,8-7-20-7-21-5-5-1-11V466l-8,6-4,8-3,16-6-3-1-13-4-12-6-15-9,7-4,10-12,10-6,2-7-13s-1.177-2.649-2.255-5.073L400,460l-4,9-10-14-10-5-5-16-7-21-10-9-15-10-9,8-13,4-13,14-13,3-3,16-8,24-9,5-8-13-5-11-4-25-13,7-3,15-6,15-14,25,2,17-11,11-5,12-4,13-8-8-2-8-4-7-6-6-5-4-3,4-3,3-5-1-7-12V479l-2-10-7-10-7,3-9-8-4,21-17-20-5-16-5-11-4,8-5,4-2,4-7-8-6-7-7-7-11-1-7-10V392l-6-18Z"/>
</svg>
