<svg xmlns="http://www.w3.org/2000/svg" width="600" height="600" viewBox="0 0 600 600">
  <defs>
    <style>
      .cls-1 {
        fill-rule: evenodd;
      }
    </style>
  </defs>
  <path class="cls-1" d="M154,318s0.616-4.929,1.164-9.316C155.6,305.168,156,302,156,302h16l5-11,12-13,17,10,10-32,6-25,13-24,5.078-18.829c1.5,3.3,13.961,20.916,13.922,20.829l7,19,4-17,7-14,10,18,10,23,6,13,10-12,6,4,1,17,5,8,3,16,11,29,3,26-12-9-14-16-11,5-15,6-9-10-6-12-9-3-1,4-5,8-1,7-8,2-5,3-8,13-5,16-15,20-17,27h-9v6l-5,7-14,5-11,1-9,2-7-8-5-14-13-11-11-14-8-4-8-12V345l-13-6-10-4-8-7,5-9,17-25,8-27,14-7,6,7,10,22,7-15,11-9,2,10,8,36Z"/>
</svg>
