<svg xmlns="http://www.w3.org/2000/svg" width="600" height="600" viewBox="0 0 600 600">
  <defs>
    <style>
      .cls-1 {
        fill-rule: evenodd;
      }
    </style>
  </defs>
  <path class="cls-1" d="M336,290l14-4,9-6,10-16h6l10,23,6,10,7-2,7-34,11-16,5-11,5-21,6-2,3,7,3,12,7,18,8,23,4,18v10l4,15,7,12,11,8,7,2,7-11,2-14,10-2,3,1,11-1,5-17,3-12,8-2,4-7,8,8,8,5,3,15-1,15-8,14-13,11-3,23v12l-7,24-16,20-10,18-5,19-11-15-4-25-8,13-5,19-13,14-9-25-7-27-2-13-2-19-6-5-13-5-6,13-5,22-10,15-1,19-12-9V406l-10-18-12-20-6-15-7-7-14-7-20-4-1-13-12-7-4-7-14-17,3-25,5-10,8,8,8,16,6,6h10Z"/>
</svg>
