<svg xmlns="http://www.w3.org/2000/svg" width="600" height="600" viewBox="0 0 600 600">
  <defs>
    <style>
      .cls-1 {
        fill-rule: evenodd;
      }
    </style>
  </defs>
  <path class="cls-1" d="M42.986,461.472L39,447.52,40,425.6,41.99,398.69l9.965-14.948,23.917-9.965,5.979-27.9L74.875,320.96l1-17.937,2.99-24.914L94.806,253.2l2.99-21.924,4.982-26.907,4.983-11.958,5.979,8.969,5.98,13.951,6.975,23.917,10.962,2.99,9.966-1.993L163.567,224.3l7.972-9.965h4.983l5.979-14.948,7.973-23.917h7.972l5.979-13.952,7.972-22.92,5.98-6.976,7.972,3.986,4.983,17.938,6.975,14.948,2.99,11.958-2.99,9.966-2.989,10.962v30.892l9.965,9.966,1-14.948,7.972-11.959,7.972-2.989,1.993,6.975,5.98,22.921,7.972,24.913,9.965,14.948,12.955,4.983,3.986,17.938,34.879,50.823,1.993,13.951L337.961,394.7l-4.983,10.962h-9.965l-2.99-8.969-10.961-5.979,1.993,11.958,3.986,18.934-9.966,20.928-4.982,16.941L297.1,452.5l-9.965-1-1,5.979-3.986,9.965-10.962-5.979-5.979-8.969-9.965-9.965-3.987-10.962-4.982,8.969L237.311,454.5l-9.965,19.931L213.394,482.4l-6.976,4.983-2.989-6.976-3.987-8.969-1.993-12.955-1-10.962-2.99-14.948-3.986,2.99-2.99,8.969L182.5,452.5l-4.982,12.955-9.966-5.979-2.989-13.952-2.99-7.972-3.986-8.969-2.99-10.962-5.979,1-5.979,19.931-7.972-15.945-16.942-2.99-3.986,8.969-6.975,5.979-6.976-1-7.972,8.969-3.986,3.986-7.972-13.952L75.872,424.6,67.9,429.583l-4.983,4.982L48.965,451.507Z"/>
</svg>
