<svg xmlns="http://www.w3.org/2000/svg" width="600" height="600" viewBox="0 0 600 600">
  <defs>
    <style>
      .cls-1 {
        fill-rule: evenodd;
      }
    </style>
  </defs>
  <path class="cls-1" d="M559,456l-6-2-5,6h-4l-5-4-5-3-5-11-7-11-7,11-6,24-7,11-13,8-9-16-3-14-7-13-5,2h-9l-7-26-7-21-3-8-5-11-6-9-11-4-3,17-8,11-3,23-10,13-6,2-3-9V394l-7-3-5-13-4-21-4-24,11,4,10-8,13-17,10-13,10,6,5-5V286l-2-19,11,6,4,7,9,16,11,20,3,18,11,16,10-1,7,10,4,11,6,3,3-4,8-8,6-18,6-12,11,1,5-12,8-5,8-6,3,6v12l-5,9-4,13v13l3,9,1,17,5,7h-7l-3,4,5,7,9,21v29Z"/>
</svg>
